<?xml version="1.0" encoding="utf-8"?>
<!-- Generator: Adobe Illustrator 16.0.0, SVG Export Plug-In . SVG Version: 6.00 Build 0)  -->
<!DOCTYPE svg PUBLIC "-//W3C//DTD SVG 1.1//EN" "http://www.w3.org/Graphics/SVG/1.1/DTD/svg11.dtd">
<svg version="1.1" id="圖層_1" xmlns="http://www.w3.org/2000/svg" xmlns:xlink="http://www.w3.org/1999/xlink" x="0px" y="0px"
	 width="240px" height="60px" viewBox="0 0 240 60" enable-background="new 0 0 240 60" xml:space="preserve">
<g>
	<g>
		
			<rect x="171.377" y="28.087" transform="matrix(0.2934 0.956 -0.956 0.2934 149.1584 -144.5973)" fill="#00000" width="2.047" height="1.043"/>
		<rect x="169.452" y="29.895" fill="#00000" width="6.113" height="1.041"/>
		<rect x="170.226" y="32.025" fill="#00000" width="4.566" height="1.042"/>
		<rect x="170.226" y="33.945" fill="#00000" width="4.566" height="1.041"/>
		<path fill="#00000" d="M174.346,35.818h-3.671c-0.289,0-0.521,0.232-0.521,0.52v3.813c0,0.289,0.231,0.521,0.521,0.521h3.671
			c0.286,0,0.521-0.231,0.521-0.521v-3.813C174.866,36.051,174.632,35.818,174.346,35.818z M173.823,39.631h-2.631v-2.771h2.631
			V39.631z"/>
		<path fill="#00000" d="M179.842,27.724l-1.041-0.011c-0.034,0.48-1.281,4.312-3.235,4.312v1.042c1.83,0,3.071-1.957,3.727-3.517
			c0.624,1.568,1.874,3.517,3.924,3.517v-1.042C180.832,32.025,179.856,28.068,179.842,27.724z"/>
		<path fill="#00000" d="M179.079,32.259c-0.019,0.528-1.81,2.705-3.229,2.705v1.041c1.991,0,4.27-2.659,4.27-3.745L179.079,32.259
			z"/>
		<path fill="#00000" d="M175.851,38.355c2.862,0,5.823-3.313,5.823-4.463l-1.041-0.01c-0.075,0.632-2.477,3.431-4.782,3.431
			V38.355z"/>
		<path fill="#00000" d="M175.565,39.696v1.04c4.281,0,7.459-3.793,7.459-4.953l-1.039-0.014
			C181.903,36.362,179.259,39.696,175.565,39.696z"/>
	</g>
	<g>
		<path fill="#00000" d="M216.535,36.305c0.288,0,0.52-0.233,0.52-0.521v-3.887c0-0.289-0.231-0.521-0.52-0.521h-2.717
			c-0.008-0.62-0.025-1.211-0.048-1.742c1.014-0.25,1.937-0.25,3.36-0.25v-1.041c-1.7,0-2.725,0-4.051,0.4
			c-0.227,0.068-0.379,0.283-0.37,0.521l0.007,0.118c0.252,5.162-0.236,8.915-1.312,10.042c-0.208,0.22-0.424,0.322-0.676,0.322
			v1.041c0.541,0,1.021-0.218,1.431-0.646c0.729-0.765,1.152-2.195,1.391-3.837H216.535z M216.015,35.263h-2.34
			c0.091-0.938,0.136-1.911,0.146-2.847h2.194V35.263z"/>
		<path fill="#00000" d="M224.586,32.424h-5.19c0.001-0.835-0.021-1.663-0.064-2.445c1.199-0.296,2.935-0.469,4.75-0.469v-1.04
			c-2.152,0-4.139,0.224-5.442,0.618c-0.228,0.069-0.379,0.283-0.37,0.521l0.012,0.187c0.275,4.823-0.219,8.28-1.357,9.488
			c-0.296,0.311-0.626,0.463-1.014,0.463v1.041c0.68,0,1.274-0.265,1.77-0.79c1.181-1.249,1.61-3.847,1.699-6.533h2.099v7.631h1.04
			v-7.631h2.069V32.424z"/>
	</g>
	<g>
		<path fill="#00000" d="M89.509,32.228h8.537c0.288,0,0.521-0.233,0.521-0.521v-3.277c0-0.288-0.233-0.521-0.521-0.521h-8.537
			c-0.287,0-0.52,0.234-0.52,0.521v3.277C88.989,31.994,89.222,32.228,89.509,32.228z M90.029,31.187v-0.611h7.495v0.611H90.029z
			 M97.524,28.948v0.587h-7.495v-0.587H97.524z"/>
		<path fill="#00000" d="M99.515,32.663h-10.53c-0.14,0-0.273,0.057-0.372,0.156c-0.098,0.099-0.151,0.234-0.149,0.373
			c0.024,1.463-0.168,5.568-1.323,6.978l0.805,0.659c1.354-1.65,1.537-5.669,1.558-7.125h10.011V32.663z"/>
		<rect x="90.712" y="34.267" fill="#00000" width="7.751" height="1.039"/>
		<path fill="#00000" d="M97.331,39.079l1.571-0.778l-0.462-0.935l-2.323,1.151c-0.895-0.515-1.526-1.119-1.933-1.592h5.758v-1.043
			h-9.424c-0.287,0-0.52,0.234-0.52,0.522v3.688c0,0.17,0.084,0.331,0.226,0.429c0.088,0.06,0.191,0.091,0.294,0.091
			c0.063,0,0.127-0.011,0.187-0.034l2.517-0.969l-0.374-0.97l-1.809,0.694v-2.408h1.832c0.599,0.886,2.849,3.687,7.367,3.687v-1.041
			C99.113,39.571,98.149,39.375,97.331,39.079z"/>
	</g>
	<g>
		<rect x="129.997" y="27.436" fill="#00000" width="1.04" height="13.48"/>
		<path fill="#00000" d="M135.84,27.994h-1.042c0,1.63-0.515,2.458-1.535,2.458v1.041C134.9,31.493,135.84,30.218,135.84,27.994z"
			/>
		<path fill="#00000" d="M140.647,31.493v-1.041c-1.525,0-1.778-1.95-1.789-2.033c-0.029-0.262-0.253-0.461-0.517-0.461h-1.734V29
			h1.3C138.165,30.051,138.948,31.493,140.647,31.493z"/>
		<path fill="#00000" d="M140.673,38.186c0,1.185-0.548,1.256-0.594,1.261h-1.103c-0.508,0-0.515-0.752-0.515-0.758v-2.431h0.815
			c0.287,0,0.521-0.231,0.521-0.52v-3.57c0-0.29-0.234-0.521-0.521-0.521h-4.939c-0.287,0-0.521,0.231-0.521,0.521v3.57
			c0,0.288,0.233,0.52,0.521,0.52h0.745c-0.104,1.046-0.558,3.313-2.486,3.313v1.041c2.551,0,3.399-2.607,3.539-4.354h1.286v2.431
			c0,0.895,0.534,1.797,1.555,1.797h1.103c0.564,0,1.635-0.479,1.635-2.3H140.673z M134.858,32.687h3.898v2.53h-3.898V32.687z"/>
		<rect x="128.309" y="30.633" fill="#00000" width="1.042" height="3.543"/>
		<rect x="131.465" y="30.473" fill="#00000" width="1.042" height="2.979"/>
	</g>
	<g>
		<path fill="#00000" d="M90.028,49.553l-1.57,2.399h-0.105l-1.581-2.399v3.641h-0.315v-4.099c0.152,0,0.222,0,0.375,0l1.568,2.39
			l1.551-2.39h0.387v4.099h-0.31V49.553z"/>
		<path fill="#00000" d="M96.367,51.149c-0.005,1.078-0.691,2.114-2.065,2.114c-1.376,0-2.067-1.042-2.067-2.125
			c0-1.1,0.685-2.108,2.067-2.108C95.683,49.03,96.373,50.044,96.367,51.149z M92.544,51.144c0.006,0.927,0.591,1.828,1.757,1.828
			c1.17,0,1.762-0.901,1.762-1.828c0-0.948-0.586-1.819-1.762-1.819C93.124,49.324,92.539,50.179,92.544,51.144z"/>
		<path fill="#00000" d="M101.56,53.193h-0.416l-1.416-1.551h-1.12v1.551h-0.315v-4.099c0.602,0,1.2,0,1.803,0
			c0.89,0,1.34,0.64,1.346,1.276c0.006,0.667-0.434,1.254-1.329,1.254L101.56,53.193z M98.608,51.344h1.453
			c0.714,0,1.03-0.404,1.036-0.979c0.006-0.479-0.322-0.977-1-0.977h-1.488V51.344z"/>
		<path fill="#00000" d="M103.397,49.095l2.757,3.392v-3.392h0.311v4.099h-0.123l-2.764-3.385v3.385h-0.315v-4.099H103.397z"/>
		<path fill="#00000" d="M111.312,49.37h-1.569v-0.275h1.879v2.555c0,1.006-0.69,1.608-1.621,1.608s-1.616-0.657-1.616-1.608h0.293
			c0,0.777,0.568,1.315,1.323,1.315c0.756,0,1.312-0.467,1.312-1.315V49.37z"/>
		<path fill="#00000" d="M117.651,51.149c-0.005,1.078-0.69,2.114-2.067,2.114c-1.375,0-2.066-1.042-2.066-2.125
			c0-1.1,0.685-2.108,2.066-2.108C116.966,49.03,117.658,50.044,117.651,51.149z M113.828,51.144
			c0.007,0.927,0.592,1.828,1.757,1.828c1.171,0,1.763-0.901,1.763-1.828c0-0.948-0.586-1.819-1.763-1.819
			C114.408,49.324,113.823,50.179,113.828,51.144z"/>
		<path fill="#00000" d="M120.513,51.554l-1.598-2.453v-0.006h0.368l1.388,2.155l1.393-2.155h0.37v0.006l-1.604,2.453v1.64h-0.316
			V51.554z"/>
		<path fill="#00000" d="M127.274,51.775v1.418h-0.316v-4.099c0.596,0,1.198,0,1.798,0c1.778,0,1.778,2.681,0,2.681H127.274z
			 M127.274,49.388v2.103h1.481c1.363,0,1.363-2.103,0-2.103H127.274z"/>
		<path fill="#00000" d="M132.051,50.302l0.011,0.515c0.182-0.393,0.593-0.545,0.961-0.545c0.218-0.006,0.428,0.053,0.619,0.17
			l-0.128,0.234c-0.151-0.094-0.322-0.135-0.491-0.135c-0.539,0.007-0.954,0.439-0.954,0.966v1.687h-0.287v-2.892H132.051z"/>
		<path fill="#00000" d="M135.082,51.747c0-0.866,0.655-1.494,1.471-1.494c0.813,0,1.538,0.499,1.429,1.629h-2.606
			c0.06,0.679,0.579,1.071,1.178,1.071c0.379,0,0.824-0.152,1.041-0.438l0.204,0.163c-0.28,0.369-0.783,0.557-1.245,0.557
			C135.737,53.234,135.082,52.666,135.082,51.747z M137.723,51.631c-0.007-0.715-0.475-1.113-1.17-1.113
			c-0.599,0-1.113,0.404-1.178,1.113H137.723z"/>
		<path fill="#00000" d="M139.554,50.302h0.316l1.054,2.558l1.056-2.558h0.316l-1.212,2.892h-0.316L139.554,50.302z"/>
		<path fill="#00000" d="M143.775,51.747c0-0.866,0.655-1.494,1.469-1.494c0.815,0,1.541,0.499,1.429,1.629h-2.605
			c0.06,0.679,0.579,1.071,1.177,1.071c0.381,0,0.826-0.152,1.042-0.438l0.205,0.163c-0.28,0.369-0.784,0.557-1.247,0.557
			C144.431,53.234,143.775,52.666,143.775,51.747z M146.415,51.631c-0.006-0.715-0.474-1.113-1.171-1.113
			c-0.598,0-1.11,0.404-1.177,1.113H146.415z"/>
		<path fill="#00000" d="M148.868,50.302v0.515c0.225-0.397,0.626-0.563,1.031-0.568c0.771,0,1.305,0.475,1.305,1.277v1.668h-0.287
			v-1.662c0-0.656-0.404-1.008-1.03-1.002c-0.596,0.007-1.014,0.457-1.014,1.054v1.61h-0.286v-2.892H148.868z"/>
		<path fill="#00000" d="M153.661,49.428v0.874h0.983v0.239h-0.983v1.762c0,0.394,0.082,0.669,0.533,0.669
			c0.141,0,0.299-0.047,0.446-0.117l0.1,0.233c-0.181,0.087-0.365,0.146-0.546,0.146c-0.613,0-0.813-0.362-0.813-0.932v-1.762
			h-0.614v-0.239h0.614v-0.844L153.661,49.428z"/>
		<path fill="#00000" d="M156.858,49.358c0,0.305-0.462,0.305-0.462,0C156.396,49.053,156.858,49.053,156.858,49.358z
			 M156.477,50.289v2.904h0.289v-2.904H156.477z"/>
		<path fill="#00000" d="M158.479,50.302h0.316l1.056,2.558l1.052-2.558h0.316l-1.212,2.892h-0.316L158.479,50.302z"/>
		<path fill="#00000" d="M162.7,51.747c0-0.866,0.655-1.494,1.471-1.494c0.813,0,1.539,0.499,1.427,1.629h-2.605
			c0.06,0.679,0.581,1.071,1.179,1.071c0.38,0,0.824-0.152,1.042-0.438l0.203,0.163c-0.279,0.369-0.784,0.557-1.245,0.557
			C163.355,53.234,162.7,52.666,162.7,51.747z M165.34,51.631c-0.005-0.715-0.474-1.113-1.169-1.113
			c-0.598,0-1.112,0.404-1.179,1.113H165.34z"/>
		<path fill="#00000" d="M173.922,49.553l-1.569,2.399h-0.104l-1.58-2.399v3.641h-0.318v-4.099c0.152,0,0.224,0,0.375,0l1.57,2.39
			l1.551-2.39h0.389v4.099h-0.312V49.553z"/>
		<path fill="#00000" d="M176.087,51.747c0-0.866,0.654-1.494,1.471-1.494c0.813,0,1.538,0.499,1.427,1.629h-2.604
			c0.059,0.679,0.579,1.071,1.178,1.071c0.38,0,0.823-0.152,1.041-0.438l0.204,0.163c-0.279,0.369-0.783,0.557-1.245,0.557
			C176.741,53.234,176.087,52.666,176.087,51.747z M178.727,51.631c-0.005-0.715-0.473-1.113-1.169-1.113
			c-0.599,0-1.112,0.404-1.178,1.113H178.727z"/>
		<path fill="#00000" d="M183.674,49.095v4.099h-0.28v-0.639c-0.241,0.439-0.715,0.687-1.206,0.687
			c-0.808,0-1.445-0.534-1.445-1.494c0-0.955,0.643-1.494,1.452-1.494c0.497,0,0.965,0.212,1.199,0.682v-1.84H183.674z
			 M181.022,51.747c0,0.802,0.533,1.212,1.182,1.212c0.679,0,1.183-0.497,1.183-1.217c0-0.721-0.515-1.213-1.183-1.213
			C181.556,50.529,181.022,50.935,181.022,51.747z"/>
		<path fill="#00000" d="M186.051,49.358c0,0.305-0.464,0.305-0.464,0C185.587,49.053,186.051,49.053,186.051,49.358z
			 M185.67,50.289v2.904h0.285v-2.904H185.67z"/>
		<path fill="#00000" d="M190.317,52.789c-0.292,0.294-0.673,0.434-1.054,0.434c-0.815,0-1.486-0.562-1.486-1.476
			c0-0.913,0.648-1.476,1.486-1.476c0.381,0,0.762,0.147,1.054,0.434l-0.187,0.183c-0.234-0.236-0.557-0.347-0.867-0.347
			c-0.655,0-1.207,0.428-1.207,1.206c0,0.779,0.552,1.206,1.207,1.206c0.311,0,0.626-0.123,0.86-0.357L190.317,52.789z"/>
		<path fill="#00000" d="M192.455,49.358c0,0.305-0.463,0.305-0.463,0C191.992,49.053,192.455,49.053,192.455,49.358z
			 M192.073,50.289v2.904h0.287v-2.904H192.073z"/>
		<path fill="#00000" d="M194.632,50.302v0.515c0.222-0.397,0.626-0.563,1.031-0.568c0.771,0,1.304,0.475,1.304,1.277v1.668h-0.287
			v-1.662c0-0.656-0.401-1.008-1.029-1.002c-0.597,0.007-1.012,0.457-1.012,1.054v1.61h-0.289v-2.892H194.632z"/>
		<path fill="#00000" d="M198.723,51.747c0-0.866,0.655-1.494,1.471-1.494c0.814,0,1.539,0.499,1.428,1.629h-2.605
			c0.059,0.679,0.58,1.071,1.178,1.071c0.38,0,0.824-0.152,1.042-0.438l0.204,0.163c-0.28,0.369-0.784,0.557-1.246,0.557
			C199.378,53.234,198.723,52.666,198.723,51.747z M201.363,51.631c-0.006-0.715-0.474-1.113-1.17-1.113
			c-0.598,0-1.112,0.404-1.178,1.113H201.363z"/>
		<path fill="#00000" d="M209.754,52.626c-0.412,0.409-0.955,0.615-1.495,0.615c-1.381,0-2.101-0.968-2.107-2.073
			c-0.011-1.095,0.702-2.12,2.107-2.12c0.54,0,1.083,0.206,1.495,0.615l-0.218,0.188c-0.353-0.353-0.813-0.522-1.277-0.522
			c-1.193,0-1.809,0.843-1.802,1.827c0.011,0.961,0.619,1.791,1.802,1.791c0.464,0,0.932-0.175,1.284-0.521L209.754,52.626z"/>
		<path fill="#00000" d="M211.835,49.095v4.099h-0.286v-4.099H211.835z"/>
		<path fill="#00000" d="M214.189,49.358c0,0.305-0.464,0.305-0.464,0C213.726,49.053,214.189,49.053,214.189,49.358z
			 M213.809,50.289v2.904h0.285v-2.904H213.809z"/>
		<path fill="#00000" d="M216.366,50.302v0.515c0.221-0.397,0.626-0.563,1.031-0.568c0.771,0,1.304,0.475,1.304,1.277v1.668h-0.286
			v-1.662c0-0.656-0.405-1.008-1.031-1.002c-0.597,0.007-1.014,0.457-1.014,1.054v1.61h-0.286v-2.892H216.366z"/>
		<path fill="#00000" d="M221.002,49.358c0,0.305-0.463,0.305-0.463,0C220.539,49.053,221.002,49.053,221.002,49.358z
			 M220.621,50.289v2.904h0.287v-2.904H220.621z"/>
		<path fill="#00000" d="M225.271,52.789c-0.293,0.294-0.675,0.434-1.054,0.434c-0.813,0-1.488-0.562-1.488-1.476
			c0-0.913,0.651-1.476,1.488-1.476c0.379,0,0.761,0.147,1.054,0.434l-0.188,0.183c-0.234-0.236-0.557-0.347-0.866-0.347
			c-0.657,0-1.208,0.428-1.208,1.206c0,0.779,0.551,1.206,1.208,1.206c0.31,0,0.626-0.123,0.859-0.357L225.271,52.789z"/>
	</g>
	<g>
		<g>
			<path fill="#00000" d="M89.518,10.644h8.567c0.289,0,0.522-0.233,0.522-0.522V6.831c0-0.289-0.234-0.522-0.522-0.522h-8.567
				c-0.289,0-0.523,0.234-0.523,0.522v3.291C88.995,10.411,89.229,10.644,89.518,10.644z M90.041,9.6V8.986h7.521V9.6H90.041z
				 M97.562,7.354v0.588h-7.521V7.354H97.562z"/>
			<path fill="#00000" d="M99.559,11.083H88.991c-0.14,0-0.274,0.056-0.372,0.156c-0.099,0.099-0.152,0.234-0.151,0.374
				c0.024,1.469-0.168,5.587-1.328,7.002l0.808,0.663c1.359-1.656,1.542-5.69,1.564-7.151h10.046V11.083z"/>
			<rect x="90.725" y="12.69" fill="#00000" width="7.779" height="1.045"/>
			<path fill="#00000" d="M97.368,17.52l1.576-0.78l-0.464-0.938l-2.331,1.155c-0.897-0.516-1.531-1.124-1.94-1.598h5.779v-1.045
				h-9.457c-0.289,0-0.522,0.235-0.522,0.522v3.701c0,0.171,0.084,0.333,0.226,0.43c0.088,0.061,0.192,0.093,0.296,0.093
				c0.063,0,0.126-0.012,0.188-0.035l2.525-0.972l-0.375-0.975l-1.815,0.698v-2.417h1.838c0.601,0.89,2.858,3.701,7.394,3.701
				v-1.045C99.155,18.015,98.188,17.818,97.368,17.52z"/>
		</g>
		<g>
			<path fill="#00000" d="M143.348,15.235v1.044c1.065,0,1.791-0.341,2.149-1.018c0.761-1.428-0.595-3.817-1.085-4.598l1.192-3.303
				c0.059-0.16,0.033-0.337-0.063-0.477c-0.097-0.139-0.257-0.222-0.428-0.222h-3.365c-0.289,0-0.525,0.233-0.525,0.522v12.196
				h1.045V7.705h2.103l-1.029,2.847c-0.058,0.156-0.035,0.331,0.058,0.469c0.685,1.018,1.609,2.936,1.175,3.75
				C144.412,15.079,143.998,15.235,143.348,15.235z"/>
			
				<rect x="148.534" y="6.383" transform="matrix(0.294 0.9558 -0.9558 0.294 112.1989 -138.077)" fill="#00000" width="2.053" height="1.047"/>
			<path fill="#00000" d="M154.009,9.406V8.361h-8.304v1.044h2.7c-0.156,2.819-1.003,8.583-3.541,8.583v1.045
				c1.861,0,3.201-1.756,3.985-5.221c0.092-0.4,0.167-0.796,0.232-1.184h3.455l-0.596,5.359h-2.271v1.045h2.74
				c0.265,0,0.488-0.2,0.518-0.463l0.712-6.405c0.018-0.148-0.029-0.296-0.129-0.406c-0.099-0.111-0.241-0.174-0.39-0.174h-3.879
				c0.12-0.917,0.179-1.698,0.208-2.179H154.009z"/>
		</g>
		<g>
			<path fill="#00000" d="M160.287,12.629h5.576v-1.044h-0.849l0.552-0.649L164.9,10.37h0.761V9.406h-1.771
				c0.067-0.199,0.11-0.389,0.14-0.566h1.312V7.875h-2.286l0.183-0.219l-0.27-0.228h2.894V6.384h-5.576
				c-0.289,0-0.523,0.233-0.523,0.522v5.201C159.764,12.396,159.998,12.629,160.287,12.629z M164.841,11.585h-2.958
				c0.688-0.303,1.18-0.742,1.517-1.215h0.011L164.841,11.585z M163.043,8.84c-0.035,0.165-0.096,0.36-0.191,0.566h-1.085
				l0.477-0.566H163.043z M160.81,7.428h1.362l-1.153,1.367l0.726,0.61h-0.741v0.964h1.066c-0.25,0.189-0.56,0.354-0.946,0.473
				l0.227,0.742h-0.54V7.428z"/>
			<path fill="#00000" d="M167.901,8.176c0.255-0.257,0.417-0.577,0.49-0.957h1.083c0.085,0.649,0.348,1.549,1.147,1.549h0.828
				V7.726h-0.759c-0.101-0.154-0.2-0.629-0.21-1.04c-0.007-0.284-0.238-0.51-0.523-0.51h-2.045c-0.141,0-0.273,0.055-0.372,0.155
				c-0.098,0.1-0.151,0.235-0.149,0.375c0.012,0.907-0.662,0.993-0.871,0.997l0.007,1.045
				C166.611,8.748,167.354,8.731,167.901,8.176z"/>
			<path fill="#00000" d="M171.399,9.796c0.105-0.161,0.116-0.368,0.025-0.537c-0.093-0.169-0.268-0.276-0.462-0.276h-4.489v1.046
				h3.352c-0.297,0.287-0.689,0.606-1.155,0.882c-0.512-0.306-0.76-0.609-0.779-0.635l-0.415,0.318l-0.418,0.314
				c0.018,0.023,0.183,0.233,0.502,0.494c-0.397,0.12-0.828,0.199-1.293,0.199v1.045c0.92,0,1.725-0.229,2.415-0.555
				c0.661,0.298,1.539,0.536,2.659,0.536v-1.044c-0.584,0-1.084-0.076-1.51-0.188C170.812,10.658,171.357,9.857,171.399,9.796z"/>
			<path fill="#00000" d="M159.753,14.036h4.281v0.438h-3.553c-0.29,0-0.523,0.234-0.523,0.522v4.169
				c0,0.289,0.233,0.523,0.523,0.523h10.134c0.289,0,0.521-0.234,0.521-0.523v-4.169c0-0.289-0.232-0.522-0.521-0.522h-3.5v-0.438
				h4.226v-1.044h-11.588V14.036z M170.094,18.644h-9.093v-3.125h3.033v0.117c0,0.28-0.346,0.424-2.24,0.424v1.044
				c1.616,0,3.285,0,3.285-1.468v-0.117h0.993c0.002,0.49,0.061,1.585,1.449,1.585h1.76V16.06h-1.76
				c-0.346,0-0.402-0.005-0.406-0.541h2.979V18.644z M166.07,14.474h-0.991v-0.438h0.991V14.474z"/>
			<rect x="161.805" y="17.393" fill="#00000" width="7.485" height="0.883"/>
		</g>
		<g>
			<path fill="#00000" d="M182.596,10.889c-0.233,0.136-0.47,0.222-0.694,0.222v1.046c0.594,0,1.16-0.284,1.65-0.651
				c0.503,0.265,1.071,0.462,1.653,0.462v-1.044c-0.27,0-0.551-0.071-0.827-0.183c0.388-0.424,0.646-0.803,0.708-0.896l-0.873-0.576
				c-0.138,0.206-0.426,0.579-0.777,0.936c-0.421-0.302-0.771-0.624-0.944-0.814l-0.773,0.705
				C181.749,10.129,182.084,10.492,182.596,10.889z"/>
			<path fill="#00000" d="M182.596,7.766c-0.233,0.137-0.47,0.223-0.694,0.223v1.044c0.594,0,1.16-0.283,1.65-0.65
				c0.503,0.264,1.071,0.462,1.653,0.462V7.801c-0.27,0-0.551-0.071-0.827-0.183c0.388-0.424,0.646-0.803,0.708-0.896l-0.873-0.576
				c-0.138,0.208-0.426,0.58-0.777,0.937c-0.421-0.302-0.771-0.624-0.944-0.814l-0.773,0.704
				C181.749,7.006,182.084,7.369,182.596,7.766z"/>
			<path fill="#00000" d="M189.344,12.448h-0.521v-5.75c0-0.289-0.236-0.522-0.523-0.522h-2.745V7.22h2.224v1.099h-1.989v1.044
				h1.989v0.931h-1.989v1.044h1.989v1.11h-8.637v-1.11h2.048v-1.044h-2.048V9.363h2.048V8.318h-2.048V7.562l2.248-0.632
				l-0.282-1.007l-2.63,0.739c-0.226,0.063-0.381,0.269-0.381,0.503v5.283h-0.523c-0.289,0-0.523,0.233-0.523,0.521v1.541h1.044
				v-1.018h10.731v1.018h1.043v-1.541C189.867,12.681,189.633,12.448,189.344,12.448z"/>
			<path fill="#00000" d="M186.395,14.964c0.202-0.119,0.303-0.361,0.242-0.589c-0.062-0.229-0.268-0.387-0.504-0.387h-5.349v1.044
				h3.391l-0.792,0.457c-0.133,0.077-0.222,0.208-0.249,0.358h-5.562v1.044h5.549v1.426h-0.959v1.045h1.481
				c0.289,0,0.522-0.232,0.522-0.521v-1.95h5.178v-1.044h-4.488L186.395,14.964z"/>
		</g>
		<g>
			<path fill="#00000" d="M124.935,9.018c-0.1,0.103-0.154,0.241-0.15,0.383c0.005,0.143,0.068,0.277,0.174,0.374l0.99,0.888
				l0.697-0.777l-0.581-0.523l1.785-1.812c0.146-0.151,0.191-0.375,0.11-0.569c-0.083-0.195-0.272-0.32-0.482-0.32h-4.339v1.044
				h3.089L124.935,9.018z"/>
			<path fill="#00000" d="M128.132,10.881h-5.249v1.044h2.313v5.964h-1.123v1.044h1.645c0.289,0,0.523-0.234,0.523-0.522v-6.486
				h1.145l-0.399,1.11l0.983,0.354l0.652-1.808c0.058-0.161,0.034-0.338-0.063-0.477C128.46,10.964,128.301,10.881,128.132,10.881z"
				/>
			<path fill="#00000" d="M128.884,6.661v1.044h1.677l-1.343,1.662c-0.074,0.093-0.115,0.209-0.115,0.329v6.127
				c0,0.289,0.234,0.521,0.522,0.521h1.332c-0.202,0.646-0.73,1.59-2.087,1.59v1.044c2.038,0,2.911-1.527,3.17-2.634h2.773
				c0.289,0,0.521-0.233,0.521-0.521V9.645c0-0.289-0.232-0.522-0.521-0.522h-4.057l0.694-0.858l-0.694-0.56h4.846V6.661H128.884z
				 M130.146,12.126h4.143v1.017h-4.143V12.126z M130.146,15.3v-1.112h4.143V15.3H130.146z M134.289,10.167v0.916h-4.143v-0.916
				H134.289z"/>
			<path fill="#00000" d="M133.646,16.813h-1.045c0,1.394,1.11,2.331,2.767,2.331V18.1C134.306,18.1,133.646,17.606,133.646,16.813
				z"/>
		</g>
		<g>
			<rect x="106.775" y="5.835" fill="#00000" width="1.045" height="13.528"/>
			<path fill="#00000" d="M112.639,6.396h-1.045c0,1.637-0.518,2.467-1.541,2.467v1.044C111.697,9.907,112.639,8.626,112.639,6.396
				z"/>
			<path fill="#00000" d="M117.465,9.907V8.863c-1.533,0-1.786-1.957-1.795-2.04c-0.03-0.264-0.253-0.462-0.519-0.462h-1.742v1.044
				h1.307C114.974,8.461,115.761,9.907,117.465,9.907z"/>
			<path fill="#00000" d="M117.49,16.625c0,1.188-0.55,1.26-0.596,1.264h-1.106c-0.512,0-0.516-0.754-0.516-0.762V14.69h0.817
				c0.288,0,0.523-0.234,0.523-0.522v-3.584c0-0.289-0.235-0.522-0.523-0.522h-4.958c-0.288,0-0.521,0.233-0.521,0.522v3.584
				c0,0.289,0.233,0.522,0.521,0.522h0.75c-0.106,1.048-0.56,3.325-2.495,3.325v1.045c2.559,0,3.411-2.619,3.551-4.37h1.29v2.438
				c0,0.897,0.536,1.806,1.562,1.806h1.106c0.567,0,1.642-0.482,1.642-2.308H117.49z M111.655,11.105h3.911v2.539h-3.911V11.105z"/>
			<rect x="105.082" y="9.044" fill="#00000" width="1.045" height="3.555"/>
			<rect x="108.25" y="8.883" fill="#00000" width="1.046" height="2.989"/>
		</g>
		<g>
			<path fill="#00000" d="M198.865,14.63v-1.044c-1.431,0-1.446-3.053-1.446-3.084v-0.419h1.003V9.037h-1.003V6.278h-1.044v2.758
				h-1.448v1.045h1.448v0.419c0,0.031-0.017,3.084-1.448,3.084v1.044c0.605,0,1.08-0.244,1.448-0.636v5.079h1.044v-5.079
				C197.787,14.386,198.262,14.63,198.865,14.63z"/>
			<path fill="#00000" d="M198.972,9.877l1.483-0.104c-0.463,0.869-1.039,1.612-1.625,1.741l0.227,1.021
				c0.031-0.007,0.058-0.022,0.087-0.029l2.25-0.319c0.059,0.309,0.09,0.528,0.092,0.533l1.033-0.149
				c-0.005-0.047-0.174-1.199-0.492-2.123l-0.943,0.326c0.74-1.185,1.166-2.56,1.239-2.808l-1.003-0.295
				c-0.091,0.306-0.213,0.657-0.358,1.019l-0.735,0.053c0.571-0.877,0.841-1.912,0.881-2.086l-1.014-0.246
				c-0.136,0.557-0.711,2.214-1.549,2.518l0.354,0.983C198.923,9.902,198.945,9.889,198.972,9.877z M201.155,11.164l-0.374,0.053
				c0.093-0.127,0.185-0.258,0.269-0.392C201.088,10.935,201.123,11.048,201.155,11.164z"/>
			<path fill="#00000" d="M204.196,9.803l1.452-0.103c-0.433,0.777-0.979,1.475-1.566,1.604l0.226,1.02
				c0.031-0.006,0.061-0.02,0.091-0.03l2.244-0.319c0.06,0.309,0.093,0.529,0.093,0.534l1.034-0.147
				c-0.006-0.049-0.172-1.202-0.49-2.125l-0.92,0.317c0.713-1.136,1.118-2.427,1.188-2.662l-1.001-0.298
				c-0.073,0.241-0.202,0.61-0.376,1.022l-0.72,0.05c0.572-0.875,0.84-1.911,0.883-2.084l-1.017-0.246
				c-0.134,0.556-0.71,2.214-1.548,2.517l0.354,0.983C204.147,9.827,204.171,9.813,204.196,9.803z M206.406,10.954l-0.354,0.05
				c0.092-0.12,0.176-0.243,0.256-0.369C206.344,10.739,206.375,10.846,206.406,10.954z"/>
			<path fill="#00000" d="M206.896,18.083c-0.552,0-1.024-0.217-1.441-0.663c-0.113-0.122-0.22-0.259-0.32-0.406
				c0.68-0.617,1.264-1.281,1.64-1.911l-0.896-0.534c-0.292,0.486-0.735,1.004-1.257,1.5c-0.215-0.501-0.39-1.066-0.528-1.666h3.474
				v-1.044h-1.248c-0.114-0.298-0.273-0.675-0.487-1.066l-0.918,0.497c0.104,0.197,0.197,0.39,0.274,0.569h-1.306
				c-0.537-3.207-0.322-6.85-0.318-6.905l-1.043-0.066c-0.015,0.228-0.222,3.711,0.31,6.971h-3.616v1.044h0.537
				c-0.031,0.975-0.231,2.51-0.948,3.265c-0.289,0.305-0.639,0.452-1.064,0.452v1.044c0.719,0,1.332-0.261,1.821-0.777
				c0.575-0.604,0.885-1.486,1.052-2.32c0.495,0.322,1.09,0.862,1.433,1.223l0.759-0.72c-0.128-0.135-1.14-1.179-2.038-1.612
				c0.017-0.205,0.027-0.391,0.032-0.554h2.236c0.187,0.856,0.438,1.668,0.769,2.369c-0.759,0.595-1.593,1.104-2.353,1.396
				l0.374,0.976c0.817-0.314,1.696-0.842,2.505-1.462c0.114,0.162,0.235,0.316,0.362,0.453c0.62,0.66,1.359,0.993,2.205,0.993h0.954
				v-1.044H206.896z"/>
		</g>
		<g>
			<path fill="#00000" d="M224.586,11.757v-1.045h-1.956V9.998h1.252V8.953h-1.252V8.222h1.654V7.178h-1.654V6.295h-1.044v0.883
				h-2.324V6.295h-1.043v0.883h-1.665v1.044h1.665v0.731h-1.287v1.045h1.287v0.714h-2.023v1.045h3.666v0.615h-2.393
				c-0.289,0-0.523,0.233-0.523,0.521v3.044h-0.75v1.044h0.75v2.109h1.045v-2.109h4.882v1.151h-1.126v1.044h1.646
				c0.289,0,0.523-0.233,0.523-0.521v-1.674h0.67v-1.044h-0.67v-3.044c0-0.289-0.234-0.521-0.523-0.521h-2.488v-0.615H224.586z
				 M217.99,13.416h1.871v0.712h-1.421v1.044h1.421v0.765h-1.871V13.416z M222.872,13.416v2.521h-1.968v-0.765h1.471v-1.044h-1.471
				v-0.712H222.872z M219.262,8.222h2.324v0.731h-2.324V8.222z M219.262,9.998h2.324v0.714h-2.324V9.998z"/>
			<path fill="#00000" d="M214.606,10.501v-0.419h1.002V9.037h-1.002V6.278h-1.045v2.758h-1.446v1.045h1.446v0.419
				c0,0.031-0.016,3.084-1.446,3.084v1.044c0.605,0,1.079-0.244,1.446-0.636v5.079h1.045v-5.079
				c0.369,0.392,0.844,0.636,1.448,0.636v-1.044C214.624,13.585,214.606,10.533,214.606,10.501z"/>
		</g>
	</g>
</g>
<g>
	<path fill="#9CC4E4" d="M65.714,58.354h-39.49c-5.017,0-9.1-4.081-9.1-9.099c0-0.885,0.717-1.601,1.601-1.601
		c0.884,0,1.602,0.716,1.602,1.601c0,3.251,2.645,5.896,5.896,5.896h39.49c3.251,0,5.896-2.645,5.896-5.896
		c0-0.885,0.717-1.601,1.601-1.601s1.602,0.716,1.602,1.601C74.812,54.272,70.731,58.354,65.714,58.354z"/>
	<path fill="#9CC4E4" d="M73.21,33.375c-0.884,0-1.601-0.716-1.601-1.6V9.782c0-3.251-2.645-5.897-5.896-5.897h-39.49
		c-3.252,0-5.896,2.646-5.896,5.897v21.993c0,0.884-0.718,1.6-1.602,1.6c-0.884,0-1.601-0.716-1.601-1.6V9.782
		c0-5.018,4.083-9.1,9.1-9.1h39.49c5.017,0,9.098,4.082,9.098,9.1v21.993C74.812,32.659,74.095,33.375,73.21,33.375z"/>
	<g>
		<path fill="#F9E7A7" d="M28.013,26.808c-0.12-0.65-0.197-1.316-0.197-2.002c0-6.128,4.968-11.096,11.097-11.096
			c3.553,0,6.708,1.676,8.739,4.274l1.171-1.549c-2.379-2.821-5.929-4.62-9.911-4.62c-7.175,0-12.992,5.816-12.992,12.991
			c0,1.328,0.215,2.602,0.586,3.807L28.013,26.808z"/>
		<path fill="#FAD9C4" d="M30.288,24.08c0.065-0.078,0.136-0.147,0.204-0.221c0.471-4.236,4.06-7.531,8.421-7.531
			c2.967,0,5.575,1.527,7.089,3.835l1.65-2.18c-2.031-2.599-5.186-4.274-8.739-4.274c-6.128,0-11.097,4.968-11.097,11.096
			c0,0.686,0.077,1.352,0.197,2.002L30.288,24.08z"/>
		<path fill="#F1AC69" d="M37.893,23.14l3.775,2.751l4.334-5.728c-1.515-2.309-4.122-3.835-7.089-3.835
			c-4.361,0-7.95,3.294-8.421,7.531C32.407,21.8,35.597,21.468,37.893,23.14z"/>
		<path fill="#71AABA" d="M74.491,43.831h-6.339c-1.085,0-2.097-0.549-2.686-1.458L53.823,24.424L45.37,35.595
			c-1.054,1.392-3.029,1.685-4.439,0.655l-5.8-4.226l-8.887,10.656c-0.609,0.729-1.509,1.15-2.459,1.15h-6.34
			c-1.768,0-3.202-1.434-3.202-3.201c0-1.769,1.434-3.204,3.202-3.204h4.84l9.848-11.808c1.082-1.296,2.982-1.53,4.346-0.537
			l5.682,4.141l9.311-12.304c0.629-0.832,1.641-1.295,2.669-1.269c1.043,0.039,2.002,0.583,2.571,1.458l13.18,20.318h4.6
			c1.769,0,3.203,1.436,3.203,3.204C77.694,42.397,76.26,43.831,74.491,43.831z"/>
	</g>
</g>
<g>
</g>
<g>
</g>
<g>
</g>
<g>
</g>
<g>
</g>
<g>
</g>
</svg>
